<svg xmlns="http://www.w3.org/2000/svg" width="16" height="16" fill="currentColor" class="bi bi-mortarboard" viewBox="0 0 16 16">
  <path d="M8.211 2.047a.5.5 0 0 0-.422 0l-7.5 3.5a.5.5 0 0 0 .025.917l7.5 3a.5.5 0 0 0 .372 0L14 7.14V13a1 1 0 0 0-1 1v2h3v-2a1 1 0 0 0-1-1V6.739l.686-.275a.5.5 0 0 0 .025-.917zM8 8.46 1.758 5.965 8 3.052l6.242 2.913z"/>
  <path d="M4.176 9.032a.5.5 0 0 0-.656.327l-.5 1.7a.5.5 0 0 0 .294.605l4.5 1.8a.5.5 0 0 0 .372 0l4.5-1.8a.5.5 0 0 0 .294-.605l-.5-1.7a.5.5 0 0 0-.656-.327L8 10.466zm-.068 1.873.22-.748 3.496 1.311a.5.5 0 0 0 .352 0l3.496-1.311.22.748L8 12.46z"/>
</svg>

<svg xmlns="http://www.w3.org/2000/svg" width="16" height="16" fill="currentColor" class="bi bi-airplane-engines-fill" viewBox="0 0 16 16">
  <path d="M8 0c-.787 0-1.292.592-1.572 1.151A4.35 4.35 0 0 0 6 3v3.691l-2 1V7.5a.5.5 0 0 0-.5-.5h-1a.5.5 0 0 0-.5.5v1.191l-1.17.585A1.5 1.5 0 0 0 0 10.618V12a.5.5 0 0 0 .582.493l1.631-.272.313.937a.5.5 0 0 0 .948 0l.405-1.214 2.21-.369.375 2.253-1.318 1.318A.5.5 0 0 0 5.5 16h5a.5.5 0 0 0 .354-.854l-1.318-1.318.375-2.253 2.21.369.405 1.214a.5.5 0 0 0 .948 0l.313-.937 1.63.272A.5.5 0 0 0 16 12v-1.382a1.5 1.5 0 0 0-.83-1.342L14 8.691V7.5a.5.5 0 0 0-.5-.5h-1a.5.5 0 0 0-.5.5v.191l-2-1V3c0-.568-.14-1.271-.428-1.849C9.292.591 8.787 0 8 0"/>
</svg>